#!OML:ASF F:\VICON\USERDATA\INSTALL\rory3\rory3.ASF
:FULLY-SPECIFIED
:DEGREES
261
root 5.52321 17.1857 20.8959 -18.8194 -80.9962 19.3462
lowerback 35.8383 0.401416 2.92748
upperback 7.58438 1.34485 5.83891
thorax -9.73116 0.157339 4.21033
lowerneck -13.6338 0.258726 -4.17377
upperneck 9.65309 2.27339 -10.6762
head 5.27294 0.103992 -2.49425
rclavicle -3.18055e-015 1.74931e-014
rhumerus -11.628 -4.11421 -68.942
rradius 54.0606
rwrist 35.75
rhand -31.4523 20.6598
rfingers 7.12502
rthumb -4.71988 -9.26758
lclavicle -3.18055e-015 1.74931e-014
lhumerus -43.2451 8.23521 85.3127
lradius 52.0876
lwrist -2.29317
lhand -16.8844 47.8133
lfingers 7.12502
lthumb 9.34686 77.586
rfemur -18.6442 5.09392 8.94211
rtibia 53.2297
rfoot -22.957 -13.0816
rtoes -24.0493
lfemur -16.5581 -10.2118 2.25857
ltibia 32.8055
lfoot -0.390509 10.746
ltoes -14.6484
262
root 5.56831 17.1652 21.1119 -15.5396 -81.2921 16.1723
lowerback 35.9708 0.781696 3.8196
upperback 7.4572 2.14819 5.68066
thorax -9.78324 0.512727 3.2862
lowerneck -13.4438 -0.151994 -2.5927
upperneck 9.79456 1.48273 -11.0667
head 5.26318 -0.240611 -2.94043
rclavicle -2.06736e-014 -3.49861e-014
rhumerus -11.0114 -6.07403 -68.9894
rradius 50.9704
rwrist 34.0147
rhand -29.4246 20.958
rfingers 7.12502
rthumb -2.76174 -9.00385
lclavicle -2.06736e-014 -3.49861e-014
lhumerus -42.7533 5.28166 86.0293
lradius 52.2735
lwrist -3.50469
lhand -16.4194 46.9645
lfingers 7.12502
lthumb 9.79558 76.7167
rfemur -18.5965 5.9265 8.78242
rtibia 52.746
rfoot -22.8225 -13.4119
rtoes -23.3481
lfemur -16.6152 -10.1898 2.9857
ltibia 32.2922
lfoot -0.642666 10.7398
ltoes -14.9495
263
root 5.61205 17.1474 21.3353 -18.3281 -81.0889 18.9194
lowerback 36.1953 0.894412 3.27739
upperback 7.55347 2.10066 5.80302
thorax -9.79288 0.493924 3.72258
lowerneck -13.4973 -0.10979 -2.52533
upperneck 9.70035 1.54593 -11.315
head 5.24985 -0.224287 -3.02432
rclavicle 2.54444e-014 6.36111e-015
rhumerus -9.37157 -7.19403 -69.0186
rradius 47.8587
rwrist 33.0238
rhand -25.8398 21.3819
rfingers 7.12502
rthumb 0.700519 -8.59667
lclavicle 2.54444e-014 6.36111e-015
lhumerus -42.486 4.35567 86.9802
lradius 52.4907
lwrist -4.75202
lhand -16.6515 46.4102
lfingers 7.12502
lthumb 9.5716 76.1728
rfemur -18.1996 6.59414 7.42986
rtibia 52.1456
rfoot -22.6803 -13.7308
rtoes -23.2036
lfemur -16.5559 -10.8932 2.46843
ltibia 31.8012
lfoot -1.36547 11.1107
ltoes -12.553
264
root 5.65754 17.135 21.5819 -10.8532 -81.5069 11.7037
lowerback 36.0692 0.692953 4.45396
upperback 7.57883 2.28643 6.20972
thorax -9.68399 0.545176 3.47017
lowerneck -13.5105 -0.121952 -2.6355
upperneck 9.55717 1.54185 -11.4064
head 5.20851 -0.232395 -3.03414
rclavicle -3.18055e-015 -4.29375e-014
rhumerus -7.72183 -9.09772 -69.2314
rradius 44.8327
rwrist 31.8799
rhand -22.1099 20.8827
rfingers 7.12502
rthumb 4.30268 -9.05361
lclavicle -3.18055e-015 -4.29375e-014
lhumerus -42.2541 3.85995 87.8348
lradius 52.7838
lwrist -6.11034
lhand -16.5003 45.8637
lfingers 7.12502
lthumb 9.71746 75.6196
rfemur -18.1429 7.32165 7.80305
rtibia 51.3363
rfoot -22.6252 -13.8898
rtoes -21.9802
lfemur -16.9084 -11.0373 3.71675
ltibia 31.4994
lfoot -1.93403 10.9277
ltoes -13.5422
265
root 5.70063 17.125 21.8139 -6.78656 -81.7259 7.75634
lowerback 36.1143 0.691139 4.93088
upperback 7.65778 2.4556 6.4301
thorax -9.60219 0.603735 3.39219
lowerneck -13.5987 -0.232498 -2.7006
upperneck 9.52505 1.39594 -11.3212
head 5.20497 -0.300957 -3.00925
rclavicle -9.54166e-015 2.22639e-014
rhumerus -6.29568 -10.6315 -69.584
rradius 42.016
rwrist 28.527
rhand -18.8991 19.1632
rfingers 7.12502
rthumb 7.40253 -10.6873
lclavicle -9.54166e-015 2.22639e-014
lhumerus -42.0412 3.21129 88.3604
lradius 53.1141
lwrist -6.74773
lhand -16.2025 45.1817
lfingers 7.12502
lthumb 10.0048 74.9239
rfemur -17.9039 7.90089 7.68837
rtibia 50.4783
rfoot -22.2755 -14.5184
rtoes -22.7764
lfemur -17.0741 -10.7298 4.21231
ltibia 31.2858
lfoot -2.47103 10.0715
ltoes -18.8349
266
root 5.75031 17.1157 22.0622 -5.98123 -81.6975 7.331
lowerback 35.9019 0.765647 5.0776
upperback 7.7578 2.59139 6.54517
thorax -9.53702 0.666443 3.34189
lowerneck -13.8788 -0.398739 -2.84865
upperneck 9.75657 1.22144 -11.1433
head 5.3139 -0.398385 -2.94977
rclavicle 1.74931e-014 1.11319e-014
rhumerus -5.13365 -12.5104 -69.6453
rradius 39.4234
rwrist 25.1922
rhand -15.8143 16.8021
rfingers 7.12502
rthumb 10.3793 -12.9217
lclavicle 1.74931e-014 1.11319e-014
lhumerus -41.7494 2.21208 89.1173
lradius 53.3952
lwrist -6.45414
lhand -17.2498 45.2747
lfingers 7.12502
lthumb 8.99429 75.063
rfemur -17.836 8.38419 6.82291
rtibia 49.5146
rfoot -22.1155 -14.7715
rtoes -21.6494
lfemur -17.6805 -10.621 4.05794
ltibia 31.3774
lfoot -3.74778 9.05903
ltoes -23.7357
267
root 5.79908 17.1052 22.3219 -5.70728 -81.751 7.32402
lowerback 36.0569 0.840332 5.24356
upperback 7.69169 2.76017 6.59467
thorax -9.54371 0.73617 3.28646
lowerneck -14.291 -0.562819 -2.80954
upperneck 10.0483 1.04474 -11.1
head 5.46633 -0.506001 -2.96676
rclavicle -3.33958e-014 -5.24792e-014
rhumerus -4.03486 -13.7998 -69.6627
rradius 36.9765
rwrist 19.6836
rhand -14.0255 12.3143
rfingers 7.12502
rthumb 12.1045 -17.3155
lclavicle -3.33958e-014 -5.24792e-014
lhumerus -41.4935 1.13636 90.0329
lradius 53.7087
lwrist -5.7657
lhand -18.8292 46.2303
lfingers 7.12502
lthumb 7.47 76.0784
rfemur -17.5745 9.03109 5.74944
rtibia 48.5615
rfoot -23.0317 -13.5766
rtoes -14.2348
lfemur -18.1017 -10.5664 3.75678
ltibia 31.6176
lfoot -5.09632 7.80979
ltoes -28.6869
268
root 5.85301 17.0894 22.5849 -3.85023 -81.8538 5.78194
lowerback 36.0076 0.939327 5.37701
upperback 7.78711 2.9388 6.83051
thorax -9.55402 0.811474 3.35537
lowerneck -14.5224 -0.711012 -2.73254
upperneck 10.0597 0.851441 -11.1747
head 5.50082 -0.610795 -3.02344
rclavicle 2.22639e-014 5.56597e-014
rhumerus -2.50497 -16.8008 -70.4083
rradius 33.8875
rwrist 14.6593
rhand -13.5782 8.75442
rfingers 7.12502
rthumb 12.5358 -20.8495
lclavicle 2.22639e-014 5.56597e-014
lhumerus -41.268 0.653539 90.6569
lradius 54.0418
lwrist -5.36715
lhand -19.2277 46.4848
lfingers 7.12502
lthumb 7.08532 76.3462
rfemur -17.463 9.65664 4.96019
rtibia 47.6454
rfoot -23.4551 -13.0584
rtoes -8.79647
lfemur -18.6699 -10.3267 3.68676
ltibia 32.1346
lfoot -6.63187 6.16469
ltoes -32.9751
269
root 5.91352 17.0726 22.8385 -5.37274 -81.7169 7.59232
lowerback 36.281 1.05994 5.16352
upperback 7.69412 3.04671 6.86705
thorax -9.65982 0.860386 3.5095
lowerneck -14.821 -0.925868 -2.84196
upperneck 10.0752 0.579622 -10.9768
head 5.54134 -0.741168 -2.97104
rclavicle 5.40694e-014 2.8625e-014
rhumerus -1.62229 -19.1778 -69.8735
rradius 31.524
rwrist 8.55631
rhand -13.2287 6.76477
rfingers 7.12502
rthumb 12.8727 -22.8182
lclavicle 5.40694e-014 2.8625e-014
lhumerus -40.9901 0.330546 90.8429
lradius 54.3611
lwrist -5.54425
lhand -17.7683 46.4655
lfingers 7.12502
lthumb 8.49397 76.2747
rfemur -17.2461 10.1403 3.75772
rtibia 46.6543
rfoot -22.8776 -13.8333
rtoes -8.83275
lfemur -19.4779 -9.81404 2.99495
ltibia 33.0561
lfoot -7.97582 4.15945
ltoes -35.4247
270
root 5.97291 17.0592 23.0803 -10.124 -81.1452 12.5186
lowerback 36.7251 1.21209 4.40399
upperback 7.5896 3.02548 6.91455
thorax -9.99863 0.86403 3.96558
lowerneck -14.9056 -1.22636 -3.10074
upperneck 9.98485 0.187916 -10.7249
head 5.50822 -0.921066 -2.88363
rclavicle 5.40694e-014 8.90555e-014
rhumerus -0.928435 -23.0275 -69.8922
rradius 29.5784
rwrist 3.95649
rhand -13.0075 5.60452
rfingers 7.12502
rthumb 13.0859 -23.9649
lclavicle 5.40694e-014 8.90555e-014
lhumerus -40.9167 0.0150682 91.039
lradius 54.7751
lwrist -5.4046
lhand -15.9282 46.4947
lfingers 7.12502
lthumb 10.2694 76.224
rfemur -16.7505 10.3802 2.04791
rtibia 45.6969
rfoot -22.0407 -14.7901
rtoes -10.548
lfemur -20.4702 -9.17562 1.57489
ltibia 34.216
lfoot -9.00388 1.95462
ltoes -36.0366
271
root 6.01626 17.0664 23.3664 -2.67533 -81.7535 5.58494
lowerback 36.578 1.27204 5.48168
upperback 7.49602 3.52094 7.25453
thorax -10.0174 1.06071 3.57384
lowerneck -14.7712 -1.53857 -3.47272
upperneck 9.74438 -0.239124 -10.3656
head 5.39169 -1.10123 -2.74083
rclavicle 6.52014e-014 1.78111e-013
rhumerus -0.359487 -27.1281 -69.8462
rradius 28.044
rwrist 0.462362
rhand -13.6576 4.40747
rfingers 7.12502
rthumb 12.4592 -25.2012
lclavicle 6.52014e-014 1.78111e-013
lhumerus -41.0637 -0.896617 91.785
lradius 55.3938
lwrist -2.41925
lhand -17.9469 46.8214
lfingers 7.12502
lthumb 8.32156 76.6375
rfemur -16.8971 11.3931 2.23153
rtibia 44.5766
rfoot -21.2677 -15.6323
rtoes -10.9634
lfemur -21.6075 -7.51341 2.01954
ltibia 35.6556
lfoot -10.1572 0.162002
ltoes -36.8977
272
root 6.07449 17.0694 23.6276 -2.19972 -81.6146 5.42636
lowerback 36.8262 1.44445 5.58085
upperback 7.38885 3.81621 7.25582
thorax -10.231 1.19103 3.40348
lowerneck -15.8215 -1.46541 -1.79872
upperneck 10.396 -0.194408 -11.7031
head 5.77283 -1.17656 -3.46773
rclavicle -1.27222e-014 -1.74931e-014
rhumerus -0.248402 -31.5288 -69.9629
rradius 27.2225
rwrist -1.75595
rhand -15.9341 3.03278
rfingers 7.12502
rthumb 10.2638 -26.6968
lclavicle -1.27222e-014 -1.74931e-014
lhumerus -41.1094 -2.00587 92.0312
lradius 55.9272
lwrist -0.334865
lhand -18.9905 47.0137
lfingers 7.12502
lthumb 7.3143 76.8673
rfemur -16.6998 11.8721 1.33547
rtibia 43.5217
rfoot -20.2961 -16.4019
rtoes -10.5717
lfemur -23.0198 -5.963 1.14925
ltibia 37.1848
lfoot -11.0207 -1.61374
ltoes -37.7361
273
root 6.13484 17.077 23.913 -1.65335 -81.5125 5.34057
lowerback 36.9303 1.32359 5.64094
upperback 7.33165 3.7131 7.36016
thorax -10.3347 1.13825 3.52677
lowerneck -14.826 -1.90436 -2.88863
upperneck 9.09615 -0.892591 -10.568
head 5.16569 -1.38403 -2.94503
rclavicle -3.02153e-014 -4.77083e-014
rhumerus 0.292169 -34.9068 -70.3281
rradius 26.6188
rwrist -2.85564
rhand -18.2945 1.99046
rfingers 7.12502
rthumb 7.98612 -27.8387
lclavicle -3.02153e-014 -4.77083e-014
lhumerus -41.1291 -1.80355 92.1393
lradius 56.4982
lwrist 1.2696
lhand -19.1083 47.2109
lfingers 7.12502
lthumb 7.20062 77.0684
rfemur -16.6468 12.3364 0.278601
rtibia 42.3876
rfoot -18.9607 -17.1344
rtoes -10.3072
lfemur -24.7006 -4.38925 0.0702296
ltibia 38.9177
lfoot -11.6061 -3.03509
ltoes -36.4308
274
root 6.19797 17.0919 24.226 -2.22388 -81.6196 6.87168
lowerback 36.6558 1.3431 5.94082
upperback 7.19286 3.84124 7.18077
thorax -10.353 1.20222 3.1254
lowerneck -15.893 -1.68075 -2.06128
upperneck 9.56916 -0.547999 -11.448
head 5.50526 -1.30522 -3.35967
rclavicle 2.06736e-014 -3.18055e-015
rhumerus 0.293944 -37.238 -69.6762
rradius 26.4637
rwrist -5.16501
rhand -19.8944 0.625268
rfingers 7.12502
rthumb 6.44175 -29.2568
lclavicle 2.06736e-014 -3.18055e-015
lhumerus -41.0377 -2.25478 92.1811
lradius 56.9834
lwrist 2.71785
lhand -18.8101 47.4408
lfingers 7.12502
lthumb 7.48845 77.2883
rfemur -17.2086 12.8909 -1.26055
rtibia 41.3702
rfoot -17.4232 -17.9289
rtoes -9.25297
lfemur -26.7443 -3.11936 -1.40183
ltibia 40.7048
lfoot -11.8869 -3.65204
ltoes -32.1341
